<svg xmlns="http://www.w3.org/2000/svg" viewBox="0 0 232.67 364.12"><title>8112</title><g id="Слой_2" data-name="Слой 2"><g id="Слой_5" data-name="Слой 5"><path d="M151.44,113.09c8.92,5.33,8.74,13.43,10.05,23.68a18.5,18.5,0,0,0,9,14l.76.43a111,111,0,0,1,56.19,96.57c0,61.34-35.68,111.06-111.06,111.06h-.07c-68.36,0-111.06-49.72-111.06-111.06a111,111,0,0,1,56.18-96.57l.77-.43a18.47,18.47,0,0,0,9-14c1.32-10.25-1.5-17.09,7.42-22.42" fill="none" stroke="#231f20" stroke-miterlimit="10" stroke-width="10.48"/><path d="M114.35,5.24h18l1.2,4.09S148.76,21.49,149,34.88s0,19.53,0,19.53h2.85V77s-2.41,2-4.39,2.2,3.52,25.68,6.15,29-2.85,7.24-8.12,6.81-30.29,0-30.29,0h-.83s-25-.44-30.29,0-10.76-3.52-8.12-6.81,8.12-28.75,6.14-29S77.69,77,77.69,77V54.41h2.86s-.22-6.14,0-19.53S96.32,10,96.32,10l.91-4.74Z" fill="none" stroke="#231f20" stroke-linecap="round" stroke-linejoin="round" stroke-width="10.48"/><path d="M110.44,115,100.28,294.08s11.9,29.7,30.25,0L121.8,114.9" fill="none" stroke="#231f20" stroke-linecap="round" stroke-linejoin="round" stroke-width="5.24"/><path d="M130.53,115l18.35,155.49S125.73,302,114.76,267s.42-152,.42-152l1.15,159.86c-17.69,21-32.1,0-32.1,0L103.45,115" fill="none" stroke="#231f20" stroke-linecap="round" stroke-linejoin="round" stroke-width="5.24"/><path d="M80.55,54.41s27.59,4.5,71.28,0" fill="none" stroke="#231f20" stroke-miterlimit="10" stroke-width="10.48"/><path d="M79.12,78.13s27.59,4.5,71.29,0" fill="none" stroke="#231f20" stroke-miterlimit="10" stroke-width="10.48"/></g></g></svg>