<svg xmlns="http://www.w3.org/2000/svg" viewBox="0 0 368.34 363.75"><title>8113</title><g id="Слой_2" data-name="Слой 2"><g id="Слой_5" data-name="Слой 5"><rect x="3.57" y="3.57" width="361.2" height="55.67" fill="none" stroke="#231f20" stroke-linecap="round" stroke-linejoin="round" stroke-width="7.14"/><line x1="3.57" y1="45.89" x2="364.77" y2="45.89" fill="none" stroke="#231f20" stroke-linecap="round" stroke-linejoin="round" stroke-width="7.14"/><polygon points="358.94 75.98 9.4 75.98 10.14 59.24 357.85 59.24 358.94 75.98" fill="none" stroke="#231f20" stroke-linecap="round" stroke-linejoin="round" stroke-width="7.14"/><polygon points="358.94 92.72 9.4 92.72 10.14 75.98 357.85 75.98 358.94 92.72" fill="none" stroke="#231f20" stroke-linecap="round" stroke-linejoin="round" stroke-width="7.14"/><polygon points="358.94 109.46 9.4 109.46 10.14 92.72 357.85 92.72 358.94 109.46" fill="none" stroke="#231f20" stroke-linecap="round" stroke-linejoin="round" stroke-width="7.14"/><polygon points="358.94 126.2 9.4 126.2 10.14 109.46 357.85 109.46 358.94 126.2" fill="none" stroke="#231f20" stroke-linecap="round" stroke-linejoin="round" stroke-width="7.14"/><polygon points="358.94 142.95 9.4 142.95 10.14 126.2 357.85 126.2 358.94 142.95" fill="none" stroke="#231f20" stroke-linecap="round" stroke-linejoin="round" stroke-width="7.14"/><polygon points="358.94 159.69 9.4 159.69 10.14 142.95 357.85 142.95 358.94 159.69" fill="none" stroke="#231f20" stroke-linecap="round" stroke-linejoin="round" stroke-width="7.14"/><polygon points="358.94 176.43 9.4 176.43 10.14 159.69 357.85 159.69 358.94 176.43" fill="none" stroke="#231f20" stroke-linecap="round" stroke-linejoin="round" stroke-width="7.14"/><polygon points="358.94 193.17 9.4 193.17 10.14 176.43 357.85 176.43 358.94 193.17" fill="none" stroke="#231f20" stroke-linecap="round" stroke-linejoin="round" stroke-width="7.14"/><polygon points="358.94 209.91 9.4 209.91 10.14 193.17 357.85 193.17 358.94 209.91" fill="none" stroke="#231f20" stroke-linecap="round" stroke-linejoin="round" stroke-width="7.14"/><polygon points="358.94 226.65 9.4 226.65 10.14 209.91 357.85 209.91 358.94 226.65" fill="none" stroke="#231f20" stroke-linecap="round" stroke-linejoin="round" stroke-width="7.14"/><polygon points="358.94 243.39 9.4 243.39 10.14 226.65 357.85 226.65 358.94 243.39" fill="none" stroke="#231f20" stroke-linecap="round" stroke-linejoin="round" stroke-width="7.14"/><polygon points="358.94 260.13 9.4 260.13 10.14 243.39 357.85 243.39 358.94 260.13" fill="none" stroke="#231f20" stroke-linecap="round" stroke-linejoin="round" stroke-width="7.14"/><polygon points="358.94 276.88 9.4 276.88 10.14 260.13 357.85 260.13 358.94 276.88" fill="none" stroke="#231f20" stroke-linecap="round" stroke-linejoin="round" stroke-width="7.14"/><polygon points="358.94 293.21 9.4 293.21 10.14 276.47 357.85 276.47 358.94 293.21" fill="none" stroke="#231f20" stroke-linecap="round" stroke-linejoin="round" stroke-width="7.14"/><polygon points="358.94 309.95 9.4 309.95 10.14 293.21 357.85 293.21 358.94 309.95" fill="none" stroke="#231f20" stroke-linecap="round" stroke-linejoin="round" stroke-width="7.14"/><polygon points="358.94 326.69 9.4 326.69 10.14 309.95 357.85 309.95 358.94 326.69" fill="none" stroke="#231f20" stroke-linecap="round" stroke-linejoin="round" stroke-width="7.14"/><polygon points="358.94 343.44 9.4 343.44 10.14 326.69 357.85 326.69 358.94 343.44" fill="none" stroke="#231f20" stroke-linecap="round" stroke-linejoin="round" stroke-width="7.14"/><polygon points="358.94 360.18 9.4 360.18 10.14 343.44 357.85 343.44 358.94 360.18" fill="none" stroke="#231f20" stroke-linecap="round" stroke-linejoin="round" stroke-width="7.14"/></g></g></svg>