<svg xmlns="http://www.w3.org/2000/svg" viewBox="0 0 155.18 178.55"><title>admin</title><g id="Слой_2" data-name="Слой 2"><g id="Слой_5" data-name="Слой 5"><path d="M76.1,0h3.43a8.55,8.55,0,0,1,7.9,5.27l67.08,161.44a8.56,8.56,0,0,1-7.9,11.84h0a8.55,8.55,0,0,1-7.94-5.38l-18-45.07a8.56,8.56,0,0,0-8-5.38h-70a8.55,8.55,0,0,0-7.94,5.38l-18,45.07a8.55,8.55,0,0,1-7.94,5.38H8.56A8.55,8.55,0,0,1,.67,166.69L68.21,5.25A8.55,8.55,0,0,1,76.1,0Zm32.19,97.15L85.64,40.49a8.55,8.55,0,0,0-15.89,0L47.1,97.15a8.56,8.56,0,0,0,7.95,11.73h45.29A8.56,8.56,0,0,0,108.29,97.15Z" fill="#231f20"/></g></g></svg>