<svg xmlns="http://www.w3.org/2000/svg" viewBox="0 0 178.32 177.77"><title>group</title><g id="Слой_2" data-name="Слой 2"><g id="Слой_5" data-name="Слой 5"><rect x="6.73" y="52.23" width="164.86" height="118.8" rx="15.07" ry="15.07" fill="none" stroke="#231f20" stroke-miterlimit="10" stroke-width="13.46"/><path d="M96.93,17.15h0A10.44,10.44,0,0,0,86.49,6.7H42.8A10.44,10.44,0,0,0,32.36,17.15h0A10.45,10.45,0,0,1,21.91,27.6H17.18A10.44,10.44,0,0,0,6.73,38V160.59A10.45,10.45,0,0,0,17.18,171h144a10.45,10.45,0,0,0,10.45-10.45V38A10.44,10.44,0,0,0,161.14,27.6H107.38A10.45,10.45,0,0,1,96.93,17.15Z" fill="none" stroke="#231f20" stroke-miterlimit="10" stroke-width="13.41"/></g></g></svg>