<svg xmlns="http://www.w3.org/2000/svg" viewBox="0 0 181.58 180.7"><title>users</title><g id="Слой_2" data-name="Слой 2"><g id="Слой_5" data-name="Слой 5"><circle cx="55.44" cy="102.69" r="27.22" fill="none" stroke="#231f20" stroke-miterlimit="10" stroke-width="10.71"/><path d="M90.79,136.82A49.77,49.77,0,0,0,72,124a27.07,27.07,0,0,1-33.08,0c-19.53,7.43-33.54,27.62-33.54,51.38" fill="none" stroke="#231f20" stroke-linecap="round" stroke-miterlimit="10" stroke-width="10.71"/><circle cx="126.14" cy="102.69" r="27.22" fill="none" stroke="#231f20" stroke-miterlimit="10" stroke-width="10.71"/><path d="M176.22,175.34c0-23.76-14-44-33.54-51.38a27.09,27.09,0,0,1-33.09,0c-19.53,7.43-33.54,27.62-33.54,51.38" fill="none" stroke="#231f20" stroke-linecap="round" stroke-miterlimit="10" stroke-width="10.71"/><path d="M131.71,74.7a51,51,0,0,0-24.92-20.85,27.09,27.09,0,0,1-33.09,0,51.18,51.18,0,0,0-25.63,22" fill="none" stroke="#231f20" stroke-linecap="round" stroke-miterlimit="10" stroke-width="10.71"/><circle cx="90.24" cy="32.58" r="27.22" fill="none" stroke="#231f20" stroke-miterlimit="10" stroke-width="10.71"/></g></g></svg>